PathFileType	4	(X/Y/Z)	OpenSim_Sub03_EMGStiffKnee_Gyro.trc
DataRate	CameraRate	NumFrames	NumMarkers	Units	OrigDataRate	OrigDataStartFrame	OrigNumFrames
100	100	27	8	m	100	3799	7597
Frame#	Time	torso_imu_offset_imu	pelvis_imu_offset_imu	tibia_r_imu_offset_imu	femur_r_imu_offset_imu	tibia_l_imu_offset_imu	femur_l_imu_offset_imu	toes_r_imu_offset_imu	toes_l_imu_offset_imu
				X1	Y1	Z1	X2	Y2	Z2	X3	Y3	Z3	X4	Y4	Z4	X5	Y5	Z5	X6	Y6	Z6	X7	Y7	Z7	X8		Y8	Z8	

3799	37.98000000	-0.07918861	0.05254682	0.15814346	0.51567338	0.32052314	-0.23155236	-0.24614112	-0.87556253	-2.16152232	-1.72291283	-0.52647362	0.64578647	0.53643684	0.39807956	0.87389627	0.55121758	0.13757195	0.80068585	-0.38094400	-1.69972787	-0.57110577	0.17519603	-0.61072642	0.26653549
3800	37.99000000	-0.01629465	0.05575930	0.11133539	0.36084492	0.35335474	-0.28105237	0.24101409	-0.42987525	-1.46282616	-2.17625500	-0.49540557	0.58718787	0.47470444	0.37345796	0.89333362	0.34871690	0.09462812	0.81945178	0.46066824	-2.28340376	-1.06994017	0.09839228	-0.70664699	0.32862288
3801	38	0.06164298	0.08401700	0.07347663	0.28531410	0.30747037	-0.25791338	1.47716984	-0.25616210	-0.92858066	-1.82495014	-0.20937414	0.77257167	0.41296308	0.35081973	0.94197836	0.16532715	0.04235751	0.77104511	0.77150359	-2.49804760	-1.00865329	0.24512129	-0.81948545	0.43531484
3802	38.01000000	0.13627851	0.12477510	0.07245249	0.24868164	0.28508031	-0.17492229	2.71239110	-0.28386215	-1.12094843	-0.69219396	0.00903993	0.37752468	0.46423058	0.30234055	0.96936352	0.06225685	-0.00466102	0.69874287	1.65309166	-1.45672343	-0.66360045	0.16126604	-0.99649951	0.50720029
3803	38.02000000	0.15733090	0.12195753	0.08311536	0.26869046	0.24778429	-0.07850430	3.21548150	-0.39146829	-1.29557121	-0.20009617	0.19786787	-0.08545183	0.56684911	0.25033670	1.02278398	-0.01511018	0.01619808	0.61455011	1.22121306	-0.81313184	-0.57992283	0.08816353	-1.23129935	0.55467650
3804	38.03000000	0.13386005	0.10508003	0.09128645	0.28633326	0.17550607	0.01270231	1.94814206	-0.68423752	-1.26931288	-0.71798560	0.02035984	-0.15811815	0.65786001	0.25475855	1.11401694	0.00326093	0.07019543	0.51048265	0.24378802	-0.44955587	-0.39039508	0.14299155	-1.48705368	0.64872608
3805	38.04000000	0.10678706	0.09136663	0.09831744	0.27853524	0.13249237	0.04584444	-0.18918326	-0.88766464	-1.23858466	-0.43543125	-0.36600591	-0.28881623	0.65833689	0.27214605	1.18608988	0.06131760	0.11029046	0.38571940	0.12391210	-0.21519956	-0.13474025	0.03761329	-1.75859603	0.74162323
3806	38.05000000	0.08512000	0.08380197	0.10617083	0.24860054	0.13500321	0.01305069	-0.98512017	-0.82760837	-1.18003747	-0.15828921	-0.36843407	-0.47224574	0.48148593	0.24298626	1.23522234	0.08966263	0.15418436	0.27070328	-0.06828085	-0.10007700	0.04262901	0.14574289	-1.99714482	0.80437596
3807	38.06000000	0.08325065	0.07901174	0.12686105	0.18513514	0.17353705	-0.06124929	-0.96594185	-0.87893048	-1.14181322	0.25351947	-0.26975217	-0.65648504	0.25202435	0.19291716	1.28623938	0.12538086	0.21632571	0.16722181	-0.13152723	-0.12745189	0.07339998	0.23762010	-2.24747524	0.90700904
3808	38.07000000	0.09791384	0.06803006	0.16417991	0.11421815	0.19805102	-0.11099098	-0.39220665	-0.49386762	-0.94768301	0.47033051	-0.27482829	-0.92174658	0.04060329	0.16897662	1.30249590	0.17223970	0.25252868	0.08106037	-0.08992635	-0.18078893	0.05729726	0.07993508	-2.39774617	1.06326032
3809	38.08000000	0.13247248	0.05850907	0.20518922	0.05246126	0.18343208	-0.12817314	0.77563321	-0.08844689	-0.60691368	0.19561459	-0.37400879	-1.07623801	-0.18218721	0.10381770	1.29348682	0.20886528	0.23940283	-0.03656806	-0.11260967	-0.19144366	0.06494425	0.02992868	-2.50877304	1.27842617
3810	38.09000000	0.15345855	0.05565909	0.23740762	0.01392378	0.15283397	-0.14227125	1.20930256	-0.36765562	-0.44570220	-0.34401415	-0.41780934	-1.04720767	-0.41092637	0.04006732	1.29918211	0.22901251	0.20208544	-0.17409076	-0.09775843	-0.19855675	0.10872200	-0.14365405	-2.57892298	1.47734451
3811	38.10000000	0.15770908	0.03557106	0.26715599	0.00479731	0.12789832	-0.20586522	1.07050550	-0.26592895	-0.53940497	-0.57578170	-0.41713515	-1.01811365	-0.53966558	-0.05051196	1.29544898	0.17674590	0.18903256	-0.27348378	-0.16518620	-0.19650291	0.16517188	-0.64521482	-2.48009968	1.62291967
3812	38.11000000	0.15609318	0.01497333	0.27433488	-0.00796996	0.11852810	-0.29589399	0.34842082	-0.15898457	-0.43690004	-0.28169513	-0.39844303	-1.12809136	-0.57628066	-0.12086651	1.23870018	-0.00281115	0.16448048	-0.32488792	-0.24973114	-0.20151060	0.19186147	-1.00252695	-2.19556761	1.66559468
3813	38.12000000	0.15038713	0.00141596	0.26683657	-0.04276296	0.10408614	-0.36775039	-0.29213172	-0.24644118	-0.31055033	-0.09641177	-0.35210409	-1.29189069	-0.53800455	-0.11129434	1.12853544	-0.31238337	0.07237773	-0.31592201	-0.27086494	-0.21479221	0.17561068	-0.58501919	-1.25179199	1.24112557
3814	38.13000000	0.13183304	-0.01409259	0.25016780	-0.09495595	0.07329631	-0.41274915	-0.45831200	-0.17002803	-0.30703479	-0.20963630	-0.35675531	-1.43809077	-0.37831539	-0.08318650	0.96895559	-0.52864323	0.02600901	-0.24688509	-0.24933166	-0.21657624	0.15406405	-0.03542810	-0.67202604	0.59000245
3815	38.14000000	0.12072679	-0.02757756	0.22689420	-0.11795932	0.04356089	-0.42521144	-0.44292765	-0.15791540	-0.22911610	-0.43165859	-0.37507260	-1.57713806	-0.01751586	-0.11859046	0.54727694	-0.65321777	-0.01120173	-0.11845980	-0.24049897	-0.21036065	0.15935343	-0.00687179	-0.36275000	-0.13937768
3816	38.15000000	0.10151392	-0.03655633	0.19257943	-0.10234783	0.00845745	-0.42921492	-0.23604789	-0.12022504	-0.15976525	-0.62127731	-0.37617106	-1.64260146	0.28745154	0.00405330	-0.19562018	-0.80816039	-0.08677725	0.05301852	-0.24913643	-0.19926890	0.16708190	-0.15789028	0.03557629	-0.76732986
3817	38.16000000	0.07426662	-0.03311160	0.16626264	-0.04361835	-0.02580670	-0.42752836	-0.10811581	-0.06098935	-0.13357278	-0.73160919	-0.36402877	-1.61307215	-0.04740142	0.01818403	-0.57662788	-0.78048318	-0.11419280	0.12752269	-0.23420997	-0.20012344	0.16651294	-0.19011025	0.30228884	-1.11999159
3818	38.17000000	0.07944525	-0.02611704	0.14752437	0.03421321	-0.05444121	-0.43938845	-0.16824966	-0.07129024	-0.12132500	-0.73569136	-0.35137750	-1.57614848	-0.57692415	-0.10189617	-0.63968455	-0.51209761	-0.12341003	0.05123233	-0.22408684	-0.19384586	0.18012053	-0.12446066	0.53112726	-1.25258875
3819	38.18000000	0.10434630	-0.02128831	0.12096119	0.11989043	-0.07550475	-0.44571029	-0.28271384	-0.04538788	-0.14046503	-0.67972757	-0.34321767	-1.57754391	-0.85053839	-0.08484938	-0.87378460	-0.34283797	-0.15413982	-0.09133065	-0.23803430	-0.17601472	0.18376455	-0.15622225	0.77585329	-1.23102115
3820	38.19000000	0.13929912	-0.01347619	0.07949226	0.19264420	-0.08781120	-0.43901795	-0.35853350	-0.03959719	-0.09926828	-0.55945291	-0.32349598	-1.62134388	-0.89890719	-0.07225600	-1.03648952	-0.39834161	-0.16160711	-0.22423001	-0.18373563	-0.15678922	0.15172847	-0.21717220	0.93666195	-1.14346229
3821	38.20000000	0.18974019	-0.00040724	0.03306393	0.24180765	-0.10872405	-0.42361495	-0.29813805	-0.04311332	-0.05703287	-0.45396702	-0.27717739	-1.63931959	-0.71515415	-0.05365799	-1.05239084	-0.52213349	-0.14192042	-0.34832780	-0.11944004	-0.14572959	0.10194393	-0.22481895	1.02950288	-1.04764519
3822	38.21000000	0.25350593	0.00351612	-0.00663282	0.27955037	-0.11623892	-0.39407947	-0.23673867	-0.04770864	-0.08403647	-0.34402242	-0.25054613	-1.62424715	-0.40299348	-0.01756247	-1.05922662	-0.58784254	-0.10281913	-0.48149654	-0.10313022	-0.11099255	0.07494767	-0.18532202	1.09979438	-0.94195569
3823	38.22000000	0.32023975	0.00422185	-0.04223407	0.29394618	-0.10825993	-0.35262822	-0.19575910	-0.04524651	-0.11706411	-0.24657590	-0.25514807	-1.59795229	-0.18560671	-0.04101548	-1.06358746	-0.57116443	-0.03912832	-0.63097058	-0.08541431	-0.08531393	0.04048037	-0.07825343	1.15906315	-0.83739122
3824	38.23000000	0.38459721	0.00314030	-0.07461204	0.31021591	-0.07779681	-0.29845902	-0.18413921	-0.03379007	-0.13682158	-0.20282809	-0.24289451	-1.54864139	-0.09014971	-0.05792821	-1.09369191	-0.45527456	0.03353826	-0.78182807	-0.06125406	-0.06792543	0.00505348	0.03937226	1.21612953	-0.72650266
3825	38.24000000	0.42839239	0.00318615	-0.09117745	0.30621508	-0.04567880	-0.25621766	-0.25374754	-0.06841449	-0.13597638	-0.15931199	-0.22396539	-1.49873916	0.00873375	-0.04207400	-1.13799445	-0.30336921	0.07653320	-0.91239477	-0.02689627	-0.06082582	-0.03443129	0.09590142	1.25809004	-0.60626641
